# xmcd
#
# Track frame offsets:
#	150
#	17858
#	35245
#	51455
#	66900
#	84458
#	98828
#	114408
#	130770
#	148943
#	165775
#	187153
#	199450
#
# Disc length: 2878 seconds
#
# Revision: 1
# Processed by: cddbd v1.5.1PL0 Copyright (c) Steve Scherf et al.
# Submitted via: CDex 1.50Beta5
#
DISCID=c10b3c0d
DTITLE=加藤登紀子 - 春待草 TOKIKO POESIE〜さよなら私の愛した20世紀たちVol.9
DYEAR=2000
DGENRE=
TTITLE0=愛する人があるのなら
TTITLE1=雪柳
TTITLE2=思春記
TTITLE3=海からの願い
TTITLE4=帰りたい帰れない
TTITLE5=今あなたに歌いたい
TTITLE6=かもめ挽歌
TTITLE7=ひとり寝の子守歌
TTITLE8=春待草
TTITLE9=電話
TTITLE10=川は流れる
TTITLE11=あなたに捧げる歌
TTITLE12=知床旅情
EXTD=
EXTT0=
EXTT1=
EXTT2=
EXTT3=
EXTT4=
EXTT5=
EXTT6=
EXTT7=
EXTT8=
EXTT9=
EXTT10=
EXTT11=
EXTT12=
PLAYORDER=
